<?xml version="1.0" encoding="UTF-8"?>
<!-- Created with Inkscape (http://www.inkscape.org/) -->
<svg width="512" height="512" version="1.2" baseProfile="tiny-ps" viewBox="0 0 512 512" xmlns="http://www.w3.org/2000/svg">
<title>Co-Founders</title>
 <path d="m0 256v-256h512v512h-512z" fill="#fbfcfc"/>
 <path d="m224 510.78c-32.414-3.1042-71.411-16.569-102-35.218-66.767-40.706-113.49-113.41-120.9-188.11-1.4095-14.21-1.4095-48.698 0-62.908 5.5837-56.291 33.087-111.48 76.52-153.56 40.657-39.385 94.785-64.863 148.5-69.899 16.493-1.5463 44.799-1.3419 62.689 0.45272 44.017 4.4156 90.619 24.074 128.2 54.08 10.977 8.7645 30.732 28.537 39.344 39.379 24.477 30.815 42.615 68.622 50.597 105.46 6.5208 30.097 6.5208 80.978 0 111.08-6.3078 29.114-19.567 60.285-36.742 86.373-13.108 19.911-34.867 43.824-53.199 58.466-37.56 29.999-84.181 49.666-128.2 54.082-16.617 1.6669-49.089 1.8299-64.8 0.32529zm72.265-100.76c40.513-7.9247 76.189-31.987 99.833-67.336 4.6171-6.9026 5.7095-9.2175 4.8428-10.262-0.61558-0.74173-4.5668-3.4065-8.7804-5.9218l-7.6611-4.5732-1.5 2.2777c-6.2415 9.4775-17.351 22.843-25.321 30.462-25.539 24.416-55.748 36.318-92.179 36.318-28.039 0-53.004-7.594-76.492-23.268-9.7764-6.5239-28.129-25.077-34.844-35.224-22.254-33.63-28.535-72.737-18.155-113.03 6.1184-23.747 15.878-40.716 33.35-57.982 16.862-16.663 32.258-26.002 55.141-33.445 16.766-5.4539 28.326-7.3651 44.5-7.3576 20.115 9e-3 34.846 3.6672 55.5 13.782 28.117 13.769 43.921 29.223 53.209 52.031 5.3705 13.188 4.1905 26.607-3.0207 34.349-2.7557 2.9585-10.186 6.7787-14.909 7.6646-5.9158 1.1098-13.842-1.7809-19.223-7.011-4.6014-4.4721-13.583-17.766-22.992-34.032-12.914-22.324-25.453-31.273-42.4-30.26-13.53 0.80894-23.67 7.6182-27.78 18.655-1.4132 3.7951-1.8011 9.1568-2.144 29.633-0.25254 15.082-0.82835 25.496-1.4514 26.25-0.7249 0.87738-4.7325 1.25-13.444 1.25h-12.411l0.56766 21.5 12.5 0.26957c10.306 0.22226 12.719 0.56297 13.75 1.9411 0.95657 1.2792 1.25 12.198 1.25 46.515v44.844l20.5-0.56997 0.18138-44.85c0.0998-24.667 0.41821-45.467 0.70768-46.222 0.40323-1.0508 3.7514-1.4366 14.319-1.65l13.792-0.2785 0.56766-21.5-13.284-0.0153c-7.3061-8e-3 -13.893-0.40162-14.639-0.87376-1.0874-0.68907-1.2824-4.8789-0.98822-21.235 0.32193-17.897 0.60848-20.855 2.3548-24.312 2.823-5.5878 6.4303-7.9856 10.785-7.1687 6.3324 1.188 11.857 7.3984 21.244 23.883 15.211 26.711 23.587 36.706 35.794 42.713 11.162 5.4924 22.698 5.8257 36.29 1.0486 27.113-9.5296 37.411-43.597 22.533-74.541-10.285-21.39-35.376-45.52-60.475-58.16-9.6339-4.8515-28.266-10.85-40.182-12.936-12.169-2.1305-40.206-2.4162-52-0.52982-12.271 1.9625-27.053 5.8837-37 9.8144-49.022 19.373-85.289 63.901-95.138 116.81-2.6166 14.056-2.6124 43.984 8e-3 58 3.968 21.222 13.224 43.569 24.925 60.178 8.9448 12.696 27.989 31.424 40.233 39.565 22.065 14.671 48.752 24.33 74.972 27.134 9.4183 1.0074 34.272-0.29723 44.765-2.3498z" fill="#9da0a5"/>
 <path d="m233.5 511.41c-1.65-0.23156-6.6-0.88611-11-1.4546-65.193-8.4225-125.38-42.353-166.66-93.953-22.228-27.788-39.686-62.848-48.388-97.178-5.8787-23.192-6.8826-32.232-6.92-62.322-0.027857-22.417 0.3213-30.094 1.7512-38.5 9.3481-54.959 32.57-101.74 69.685-140.38 34.529-35.948 83.896-63.045 132.03-72.47 21.855-4.2793 26.107-4.652 52.5-4.6012 22.17 0.04264 27.901 0.37725 38.903 2.2713 55.945 9.6313 102.38 33.26 141.12 71.817 40.571 40.375 65.131 90.335 73.673 149.86 1.6927 11.797 1.6927 51.203 0 63-8.5415 59.527-33.102 109.49-73.673 149.86-38.612 38.425-85.425 62.299-140.59 71.699-9.6223 1.6396-17.741 2.1916-35.931 2.4429-12.925 0.17859-24.85 0.13526-26.5-0.0963zm62.765-100.36c31.603-6.2371 60.358-22.192 83.098-46.108 9.4232-9.9105 24.078-30.113 23.375-32.223-0.48114-1.4434-17.799-11.797-18.749-11.209-0.4222 0.26093-3.7235 4.6412-7.3363 9.7339-23.633 33.314-54.32 52.563-91.975 57.694-11.232 1.5304-30.646 1.3059-41.678-0.48183-18.316-2.9682-39.486-11.641-55-22.532-4.125-2.8958-11.788-9.575-17.03-14.843-20.868-20.972-33.69-47.012-37.567-76.293-4.4871-33.883 4.0548-70.884 22.328-96.718 6.8723-9.7156 22.499-24.765 33.01-31.791 23.719-15.853 52.483-24.674 80.259-24.612 19.566 0.0436 35.019 3.8109 54.5 13.286 17.999 8.7551 31.008 18.171 39.381 28.504 15.62 19.276 20.992 38.381 14.472 51.464-4.5586 9.1479-15.247 14.318-25.06 12.122-9.3727-2.0975-17.67-11.497-30.627-34.696-9.9255-17.771-18.526-27.622-28.826-33.018-4.7487-2.4879-6.3925-2.7994-14.84-2.8126-11.669-0.0182-17.451 1.9563-24.19 8.2597-8.2604 7.7267-9.0988 11.27-9.753 41.225l-0.55692 25.5-26.563 0.55849 0.28148 11.721 0.28148 11.721 13.25 0.27903c7.2875 0.15346 13.351 0.37846 13.475 0.5 0.1236 0.12153 0.4611 20.921 0.75 46.221l0.52527 46h22l0.2257-45c0.12414-24.75 0.23664-45.562 0.25-46.25 0.0182-0.9365 3.3794-1.25 13.402-1.25 10.228 0 13.65-0.32864 14.536-1.396 0.75823-0.91361 1.0597-4.9738 0.87244-11.75l-0.28613-10.354-28-1-0.2829-16c-0.15559-8.8 0.15232-18.814 0.68426-22.253 1.7387-11.242 7.0988-15.328 14.892-11.352 5.3531 2.731 7.8916 5.9821 16.301 20.878 14.974 26.524 25.165 38.646 37.242 44.297 9.4843 4.4382 17.194 5.4074 27.103 3.4069 20.698-4.1787 33.435-16.116 38.04-35.652 4.1538-17.62-0.22806-36.755-12.599-55.016-5.8839-8.6858-22.64-25.721-32.881-33.428-16.307-12.272-39.526-22.073-61.5-25.959-12.122-2.1441-40.095-2.4457-52-0.56069-37.29 5.9045-66.47 20.852-91.714 46.981-20.904 21.637-34.764 47.996-40.862 77.714-3.2226 15.704-3.6942 41.508-1.0518 57.558 3.6989 22.467 11.657 42.938 23.843 61.329 8.5344 12.881 30.08 34.648 42.285 42.72 21.838 14.443 46.473 23.546 72.646 26.845 11.298 1.4239 35.518 0.42577 47.619-1.9624z" fill="#7d8188"/>
 <path d="m236 511.33c-63.571-6.3767-117.21-30.949-160.01-73.305-39.029-38.619-63.403-86.116-73.169-142.58-1.9358-11.193-2.2383-16.522-2.2383-39.441s0.30245-28.249 2.2383-39.441c6.7708-39.148 18.736-69.833 39.599-101.56 55.403-84.246 156.35-128.25 255.58-111.42 25.014 4.2437 46.593 11.246 70.565 22.898 54.654 26.566 99.437 73.876 122.87 129.8 13.798 32.933 19.986 63.808 19.986 99.715s-6.1882 66.782-19.986 99.715c-23.431 55.927-68.214 103.24-122.87 129.8-23.995 11.663-45.719 18.71-70.565 22.89-18.578 3.1252-46.738 4.4519-62 2.921zm62.159-100.26c33.158-7.1317 62.031-24.077 85.367-50.102 8.3768-9.342 19.916-26.378 19.175-28.308-0.60609-1.5794-16.366-11.663-18.229-11.663-0.61131 0-3.6346 3.7125-6.7185 8.25-28.004 41.204-69.367 62.438-117.75 60.449-7.425-0.30519-16.875-1.2716-21-2.1476-74.179-15.753-119.06-85.587-103.47-161.02 5.9084-28.604 20.169-53.015 41.43-70.918 14.984-12.618 28.691-20.112 48.544-26.542 42.127-13.645 79.581-7.9949 118.19 17.828 15.78 10.555 28.371 26.494 34.036 43.087 5.2686 15.431 0.84674 29.171-11.277 35.04-3.6265 1.7556-5.8294 2.1196-10.881 1.7979-12.652-0.80562-16.804-5.4661-38.947-43.713-4.8602-8.3952-16.488-20.21-23.275-23.649-5.3744-2.7231-6.6912-2.9617-16.345-2.9617-10.068 0-10.761 0.14142-16.843 3.4391-6.8859 3.7332-9.8544 6.9767-13.377 14.616-2.1474 4.6574-2.2986 6.3989-2.5996 29.945-0.18888 14.775-0.72613 25.409-1.3136 26-0.55422 0.55759-6.3854 1-13.18 1h-12.186v24l26 1 1 92h23l1-92 28-1 0.28174-11.75 0.28173-11.75-13.282-0.0153c-7.305-8e-3 -13.9-0.40664-14.655-0.88492-1.1151-0.70637-1.276-4.4107-0.8569-19.735 0.28375-10.376 1.0133-20.474 1.6213-22.439 2.4375-7.8818 9.1758-10.332 15.683-5.7021 4.5906 3.2663 6.3153 5.6656 15.032 20.912 18.124 31.701 28.258 42.053 45.495 46.468 19.196 4.9178 43.419-5.8825 52.241-23.293 7.9726-15.733 7.4824-38.91-1.1834-55.955-10.092-19.851-31.926-41.699-54.659-54.698-42.397-24.242-102.27-24.858-148.77-1.5321-41.868 21.003-73.394 62.061-82.694 107.7-8.6015 42.208-0.46649 86.648 21.957 119.95 10.925 16.223 28.248 33.805 43.131 43.778 20.003 13.404 45.785 23.209 69.376 26.385 11.778 1.5855 41.528 0.53562 52.659-1.8584z" fill="#787c83"/>
 <path d="m236 511.37c-8.3888-0.78599-29.451-4.435-40-6.9301-80.6-19.063-147.64-77.543-178.36-155.6-5.9677-15.159-9.9537-29.472-13.88-49.843-3.079-15.973-3.1806-17.346-3.1806-43s0.10158-27.027 3.1806-43c3.9267-20.371 7.9126-34.684 13.88-49.843 30.179-76.661 95.639-134.7 174.45-154.68 5.359-1.3584 16.419-3.6787 24.578-5.1561 13.465-2.4382 17.097-2.6862 39.335-2.6862 22.262 0 25.87 0.24702 39.5 2.7042 57.219 10.315 102.34 33.378 141.06 72.098 34.148 34.148 57.226 75.846 68.385 123.56 4.9989 21.375 6.3534 33.527 6.3534 57 0 18.491-0.38894 24.816-2.1828 35.5-5.4371 32.382-12.569 54.782-25.575 80.325-33.028 64.865-91.869 112.55-161.84 131.15-21.693 5.7677-38.205 8.0688-60.702 8.4594-11.275 0.19573-22.525 0.16615-25-0.0657zm65-100.68c40.092-9.5659 73.535-32.889 96.138-67.046 3.2244-4.8727 5.8625-9.6092 5.8625-10.526 0-1.7386-15.807-12.115-18.455-12.115-0.78926 0-4.2568 4.1625-7.7057 9.25-7.6688 11.312-26.564 30.46-36.612 37.101-23.4 15.465-45.85 22.03-75.227 21.998-18.399-0.0204-28.245-1.6505-44.5-7.3669-37.488-13.183-68.373-44.553-80.915-82.185-4.3069-12.923-5.7211-21.683-6.2888-38.956-0.83856-25.514 2.897-44.145 13.101-65.341 16.55-34.377 48.417-58.909 90.103-69.362 37.374-9.3722 71.636-2.6924 106.8 20.823 10.328 6.906 17.914 14.133 23.77 22.644 4.6444 6.7504 10.802 20.268 12.137 26.646 3.2456 15.499-6.1948 29.338-20.842 30.553-12.449 1.0324-20.892-7.136-36.767-35.571-6.4518-11.556-15.407-23.339-20.933-27.544-10.324-7.8554-22.095-10.271-33.365-6.8483-8.3891 2.5481-12.673 5.3144-16.984 10.966-5.6273 7.3779-6.4033 11.913-6.4188 37.512-8e-3 12.55-0.26111 23.462-0.56339 24.25-0.43762 1.1404-3.1731 1.4323-13.424 1.4323-15.173 0-14.16-1.0726-13.704 14.5l0.29235 10 27 1 1 92 23.48 0.5633 0.52002-92.563 28-1v-24l-28-1-0.29792-13c-0.51078-22.289 2.0442-33.808 7.9603-35.888 7.065-2.4846 13.106 3.1635 24.236 22.659 17.846 31.26 29.215 42.865 45.716 46.67 21.273 4.9043 46.359-7.668 54.155-27.14 3.5652-8.9056 5.0024-20.325 3.7738-29.984-2.2825-17.945-10.155-32.49-27.283-50.406-21.094-22.065-46.167-36.11-76.072-42.614-8.744-1.9016-13.307-2.2215-32.188-2.2564-19.023-0.03513-23.515 0.26652-33.197 2.2294-12.013 2.4355-31.34 8.7138-39.68 12.89-31.432 15.74-56.335 40.733-71.581 71.84-10.287 20.99-14.056 34.562-16.196 58.327-3.2065 35.606 6.9793 73.899 27.305 102.65 7.6489 10.821 25.536 29.167 35.849 36.77 16.152 11.907 35.991 21.173 56 26.154 16.233 4.0409 20.984 4.4972 43 4.13 17.65-0.29436 21.96-0.69025 31-2.8472z" fill="#585d65"/>
 <path d="m237 510.93c-44.864-4.4479-87.805-19.317-122-42.243-19.684-13.198-43.028-34.267-56.707-51.182-27.795-34.369-47.287-77.474-53.811-119-0.86414-5.5-2.1135-11.8-2.7764-14-1.6571-5.4998-1.6571-51.5 0-57 0.66286-2.2 1.9122-8.5 2.7764-14 6.5243-41.526 26.016-84.631 53.811-119 13.679-16.915 37.023-37.984 56.707-51.182 43.561-29.207 105.7-46.345 154.25-42.54 55.091 4.318 105.2 23.594 146.25 56.258 48.142 38.309 82.189 96.591 91.54 156.7 1.1777 7.5709 2.6128 15.319 3.1892 17.219 1.3733 4.5258 1.3733 45.567 0 50.093-0.57634 1.8994-2.0115 9.6478-3.1892 17.219-5.415 34.81-18.582 68.231-38.99 98.967-43.241 65.127-112.67 105.83-194.05 113.76-10.14 0.98883-26.625 0.95686-37-0.0718zm60.5-98.918c41.726-8.8852 75.792-32.076 100.27-68.26 5.3896-7.9673 6.4566-10.169 5.5954-11.546-1.2357-1.976-17.168-12.202-19.011-12.202-0.68384 0-4.0806 4.1504-7.5483 9.2232-7.637 11.172-22.398 26.788-32.527 34.411-32.961 24.807-80.587 32.165-121.28 18.738-32.112-10.596-60.324-35.194-75.902-66.178-9.6258-19.145-13.468-36.522-13.42-60.695 0.0353-17.739 1.9336-29.487 7.4199-45.92 12.268-36.746 42.991-66.004 83.435-79.454 42.331-14.078 80.473-8.283 119.97 18.227 13.093 8.7886 22.543 20.108 30.137 36.098 4.1696 8.78 5.4646 18.796 3.4116 26.388-2.6275 9.7165-15.29 17.465-24.981 15.288-9.6102-2.1593-16.073-9.3456-29.712-33.038-11.837-20.562-19.954-29.757-31.122-35.258-4.0006-1.9703-6.28-2.3309-14.733-2.3309-8.9231 0-10.676 0.31216-16.277 2.8986-7.2042 3.3269-11.42 7.6641-15.122 15.556-2.5365 5.4078-2.6135 6.1793-3.1011 31.046l-0.5 25.5-10.929-0.31353c-16.833-0.4829-15.683-1.5013-15.351 13.59l0.27968 12.724 26.5 0.55805v45.271c0 33.877 0.30201 45.573 1.2 46.471 0.79039 0.79039 5.0207 1.2 12.393 1.2 9.2841 0 11.297-0.26977 11.8-1.5818 0.33385-0.86998 0.60699-21.795 0.60699-46.5v-44.918h13.378c10.215 0 13.651-0.32933 14.534-1.3931 0.7653-0.92214 1.0603-5.2327 0.87244-12.75l-0.28375-11.357-28-1 0.0625-19.5c0.0683-21.314 0.87654-25.276 5.816-28.512 2.1162-1.3866 3.1287-1.4754 6.0032-0.52673 5.1738 1.7075 10.354 8.0454 18.83 23.039 18.354 32.468 30.397 43.985 49.289 47.138 5.843 0.97503 8.2997 0.90176 14.863-0.44327 26.073-5.3433 40.681-23.502 40.62-50.494-0.0445-19.72-8.2462-37.363-26.473-56.947-27.444-29.486-61.905-45.114-103.51-46.939-64.749-2.8415-122.91 30.668-151.38 87.213-11.604 23.05-16.754 45.52-16.726 72.972 0.0705 68.156 43.47 127.61 109.05 149.38 8.4107 2.7923 24.291 6.2884 34.057 7.4978 9.1614 1.1346 37.741-0.2906 47.5-2.3686z" fill="#333944"/>
 <path d="m237 511.05c-4.7953-0.37556-6.5984-0.80242-5-1.1837 1.9708-0.47004 1.6532-0.62595-1.5-0.73647-2.2-0.0771-8.275-0.81478-13.5-1.6393-99.448-15.693-180.03-87.499-206.48-183.98-3.4545-12.604-7.468-33.953-7.5928-40.387-0.053422-2.755-0.2539-3.1552-0.83559-1.668-0.89731 2.2942-2.0941-12.255-2.0941-25.457s1.1968-27.751 2.0941-25.457c0.58168 1.4872 0.78216 1.087 0.83559-1.668 0.12476-6.4341 4.1383-27.782 7.5928-40.387 21.311-77.757 78.42-140.85 153.82-169.94 20.731-7.9982 51.454-15.263 66.16-15.644 3.372-0.087419 3.6075-0.21794 1.5-0.83129-4.1606-1.2109 22.539-2.3097 36.625-1.5072 7.0802 0.40336 11.993 1.0421 10.917 1.4195-1.1961 0.41956 1.0793 0.94273 5.8564 1.3465 24.665 2.085 55.924 11.367 83.153 24.692 49.533 24.24 91.222 65.949 115.42 115.48 13.457 27.543 22.482 58.503 24.657 84.59 0.4205 5.0422 0.96738 7.5633 1.3834 6.3774 0.37838-1.0787 0.92123 3.3248 1.2063 9.7855 0.60561 13.723-0.20658 36.129-1.2063 33.279-0.416-1.1859-0.96288 1.3352-1.3834 6.3774-0.38248 4.5862-1.6077 13.12-2.7226 18.965-19.567 102.56-98.078 181.9-200.55 202.67-6.6796 1.3538-15.66 2.7586-19.957 3.1218-4.6291 0.3913-7.0329 0.93388-5.8992 1.3316 4.4576 1.5636-26.26 2.3245-42.499 1.0526zm56-97.648c17.723-3.0327 35.917-9.5538 51.449-18.44 21.672-12.4 43.653-33.889 57.041-55.763 3.8018-6.2117 3.8287-6.3261 1.9328-8.2064-3.1754-3.1493-18.457-11.918-19.843-11.386-0.70886 0.27202-3.7979 4.1841-6.8645 8.6935-19.823 29.149-46.919 48.694-77.909 56.198-62.19 15.058-123.36-12.89-151.73-69.327-14.802-29.44-17.109-69.886-5.9439-104.17 11.163-34.278 39.027-63.135 74.266-76.913 46.035-17.999 86.242-13.646 127.24 13.774 15.122 10.115 26.125 23.506 32.993 40.155 3.5314 8.5606 3.7739 19.421 0.57235 25.637-6.0759 11.797-20.853 15.725-31.135 8.2765-5.2083-3.7729-12.299-13.406-20.19-27.43-11.735-20.856-21.597-32.14-32.591-37.291-4.9783-2.3328-7.0311-2.703-14.781-2.6656-11.399 0.0549-18.849 2.7533-25.237 9.1408-8.4394 8.4394-10.243 16.891-10.256 48.066l-0.00759 18.25h-12.981c-15.354 0-14.252-1.2365-13.81 15.5l0.29087 11 27 1 0.25294 45.5c0.22993 41.359 0.40659 45.614 1.9411 46.75 1.8888 1.3985 20.961 1.756 23.046 0.43199 0.95066-0.60377 1.3005-11.502 1.5-46.735l0.26022-45.947 28-1 0.66488-11.475c0.38357-6.6198 0.26926-12.214-0.27015-13.222-0.80824-1.5102-2.7968-1.7848-14.665-2.0252l-13.73-0.27809 0.064-16c0.0994-24.847 2.7883-32.594 10.791-31.093 5.2079 0.97701 10.297 6.8152 18.055 20.714 15.047 26.957 25.239 39.125 38.093 45.478 22.119 10.932 52.242 0.91917 63.002-20.941 10.721-21.783 7.7647-45.414-8.6792-69.372-6.9801-10.17-24.082-27.167-35.349-35.133-15.505-10.962-34.891-19.275-55.477-23.789-6.9729-1.5292-12.722-1.8604-32-1.8434-26.272 0.02315-34.349 1.2094-54.928 8.0678-49.131 16.373-88.427 58.632-101.64 109.3-5.689 21.818-6.7865 48.053-2.933 70.111 1.9208 10.995 7.8381 29.534 12.976 40.655 7.5232 16.283 22.685 35.896 38.774 50.159 35.291 31.284 85.883 45.61 132.75 37.591z" fill="#262c38"/>
 <path d="m238 511c-7.4886-0.63871-7.4916-0.64016-2-0.95499 5.041-0.28899 4.7489-0.38516-3.5-1.1524-49.493-4.6031-97.153-23.994-136.5-55.534-11.359-9.1054-28.843-26.675-38.171-38.358-31.207-39.086-50.824-87.999-55.144-137.5-0.33754-3.8679-0.35982-3.8349-0.67451 1-0.32143 4.9383-0.33432 4.9136-1.0439-2-0.92476-9.0101-0.92476-31.99 0-41 0.70958-6.9136 0.72247-6.9383 1.0439-2 0.3147 4.8349 0.33697 4.8679 0.67451 1 4.3198-49.501 23.936-98.414 55.144-137.5 9.3285-11.684 26.812-29.253 38.171-38.358 39.215-31.435 88.882-51.661 136-55.383 8.9726-0.7088 9.1946-0.77912 4-1.2664-10.535-0.98828 19.202-2.1966 32.75-1.3308 10.923 0.69804 11.962 0.90066 7.25 1.4137l-5.5 0.59888 5 0.1676c8.1902 0.27454 30.262 3.8076 41.347 6.6186 45.228 11.469 82.514 32.359 116.01 64.998 30.612 29.826 51.736 63.683 64.602 103.54 6.3259 19.598 11.214 45.394 11.711 61.801l0.1726 5.6988 0.5774-6.5c0.93272-10.5 1.9447 17.097 1.1001 30-0.63058 9.6334-0.71557 9.9635-1.0297 4-0.28926-5.4908-0.39247-5.8013-0.66474-2-3.955 55.219-22.47 102.87-56.239 144.74-9.5176 11.801-29.471 31.43-41.09 40.421-39.181 30.32-84.033 48.112-133 52.759-7.9732 0.75657-8.1591 0.82461-3 1.0977 5.0826 0.269 4.855 0.34769-3 1.037-9.9366 0.87199-24.394 0.84903-35-0.0556zm60.159-97.926c24.383-5.2442 50.721-17.786 67.841-32.304 18.33-15.544 40.713-43.863 38.738-49.01-0.75971-1.9798-18.118-12.759-20.547-12.759-1.1726 0-3.8461 2.9647-7.4397 8.25-23.854 35.083-55.423 54.957-95.093 59.864-11.853 1.4664-33.634 0.48183-44.659-2.0186-17.29-3.9215-36.406-12.533-49.5-22.299-10.342-7.7138-23.518-21.519-30.5-31.958-15.647-23.393-22.292-45.536-22.308-74.339-9e-3 -17.357 1.7378-28.693 6.8581-44.495 6.3938-19.733 14.93-33.533 30.07-48.612 15.456-15.394 33.1-25.836 55.38-32.775 40.922-12.744 76.335-7.6423 113.34 16.33 26.035 16.866 43.24 47.758 36.107 64.834-3.3391 7.9936-11.049 13.218-19.506 13.218-11.779 0-17.835-6.5717-37.441-40.628-6.5071-11.303-16.502-22.011-24.688-26.45-6.0988-3.3068-6.6846-3.4226-17.312-3.4226-9.8121 0-11.611 0.28632-16.655 2.6514-7.2976 3.4212-13.177 9.5416-16.017 16.674-2.0952 5.2611-2.2859 7.5185-2.6201 31.004l-0.36037 25.329-10.859-0.70382c-5.9726-0.38711-12.026-0.41106-13.452-0.0532l-2.5922 0.65059 0.27805 13.724 0.27805 13.724 26.5 0.55805v45.271c0 33.877 0.30201 45.573 1.2 46.471 0.80211 0.80211 5.2429 1.2 13.393 1.2 10.196 0 12.292-0.25908 12.8-1.5818 0.33385-0.86998 0.60699-21.795 0.60699-46.5v-44.918h13.378c10.203 0 13.651-0.32995 14.532-1.3906 0.77115-0.92917 1.0606-5.4917 0.87245-13.75l-0.28166-12.359-28.5-0.55491 8e-3 -14.723c0.0111-21.612 2.0825-31.47 6.8191-32.453 6.3681-1.3212 12.299 4.5256 21.577 21.27 17.752 32.04 29.371 43.869 47.705 48.566 15.458 3.9602 37.591-3.2596 48.282-15.75 13.654-15.952 15.48-44.373 4.2707-66.492-11.266-22.232-34.98-45.16-59.747-57.769-33.385-16.996-73.079-21.039-112.37-11.444-36.83 8.9935-69.024 30.596-90.807 60.933-8.1555 11.358-18.489 31.919-22.592 44.952-14.549 46.215-7.6008 98.198 18.299 136.91 26.094 39 67.369 64.597 114.55 71.042 11.284 1.5412 41.201 0.44442 52.159-1.9122z" fill="#19202c"/>
</svg>
